<?xml version="1.0" encoding="UTF-8" standalone="no"?>
<!-- Uploaded to: SVG Repo, www.svgrepo.com, Generator: SVG Repo Mixer Tools -->

<svg
   width="800px"
   height="800px"
   viewBox="0 0 24 24"
   fill="none"
   version="1.1"
   id="svg30"
   sodipodi:docname="cpu-svgrepo-com.svg"
   inkscape:version="1.2.2 (732a01da63, 2022-12-09)"
   xmlns:inkscape="http://www.inkscape.org/namespaces/inkscape"
   xmlns:sodipodi="http://sodipodi.sourceforge.net/DTD/sodipodi-0.dtd"
   xmlns="http://www.w3.org/2000/svg"
   xmlns:svg="http://www.w3.org/2000/svg">
  <defs
     id="defs34" />
  <sodipodi:namedview
     id="namedview32"
     pagecolor="#ffffff"
     bordercolor="#000000"
     borderopacity="0.25"
     inkscape:showpageshadow="2"
     inkscape:pageopacity="0.0"
     inkscape:pagecheckerboard="0"
     inkscape:deskcolor="#d1d1d1"
     showgrid="false"
     inkscape:zoom="1.05875"
     inkscape:cx="400.47226"
     inkscape:cy="400.94451"
     inkscape:window-width="1920"
     inkscape:window-height="1028"
     inkscape:window-x="-8"
     inkscape:window-y="-8"
     inkscape:window-maximized="1"
     inkscape:current-layer="svg30" />
  <path
     opacity="0.4"
     d="M15 4H9C6.24 4 4 6.24 4 9V15C4 17.76 6.24 20 9 20H15C17.76 20 20 17.76 20 15V9C20 6.24 17.76 4 15 4ZM17.26 14.26C17.26 15.92 15.92 17.26 14.26 17.26H9.74C8.08 17.26 6.74 15.92 6.74 14.26V9.74C6.74 8.08 8.08 6.74 9.74 6.74H14.25C15.91 6.74 17.25 8.08 17.25 9.74V14.26H17.26Z"
     fill="#292D32"
     id="path2" />
  <path
     d="M9.06055 2.75V4H9.00055C8.50055 4 8.02055 4.07 7.56055 4.21V2.75C7.56055 2.34 7.89055 2 8.31055 2C8.72055 2 9.06055 2.34 9.06055 2.75Z"
     fill="#292D32"
     id="path4"
     style="fill:#ed5959;fill-opacity:1" />
  <path
     d="M12.75 2.75V4H11.25V2.75C11.25 2.34 11.59 2 12 2C12.41 2 12.75 2.34 12.75 2.75Z"
     fill="#292D32"
     id="path6"
     style="fill:#ed5959;fill-opacity:1" />
  <path
     d="M16.4492 2.75V4.21C15.9892 4.07 15.4992 4 14.9992 4H14.9492V2.75C14.9492 2.34 15.2892 2 15.6992 2C16.1092 2 16.4492 2.34 16.4492 2.75Z"
     fill="#292D32"
     id="path8"
     style="fill:#ed5959;fill-opacity:1" />
  <path
     d="M21.9991 8.30005C21.9991 8.72005 21.6691 9.05005 21.2491 9.05005H19.9991V9.00005C19.9991 8.50005 19.9291 8.01005 19.7891 7.55005H21.2491C21.6691 7.55005 21.9991 7.89005 21.9991 8.30005Z"
     fill="#292D32"
     id="path10"
     style="fill:#ed5959;fill-opacity:1" />
  <path
     d="M22 12C22 12.41 21.67 12.75 21.25 12.75H20V11.25H21.25C21.67 11.25 22 11.58 22 12Z"
     fill="#292D32"
     id="path12"
     style="fill:#ed5959;fill-opacity:1" />
  <path
     d="M21.9991 15.7C21.9991 16.11 21.6691 16.45 21.2491 16.45H19.7891C19.9291 15.99 19.9991 15.5 19.9991 15V14.95H21.2491C21.6691 14.95 21.9991 15.28 21.9991 15.7Z"
     fill="#292D32"
     id="path14"
     style="fill:#ed5959;fill-opacity:1" />
  <path
     d="M16.4492 19.79V21.25C16.4492 21.66 16.1092 22 15.6992 22C15.2892 22 14.9492 21.66 14.9492 21.25V20H14.9992C15.4992 20 15.9892 19.93 16.4492 19.79Z"
     fill="#292D32"
     id="path16"
     style="fill:#ed5959;fill-opacity:1" />
  <path
     d="M12.7598 20V21.25C12.7598 21.66 12.4198 22 12.0098 22C11.5898 22 11.2598 21.66 11.2598 21.25V20H12.7598Z"
     fill="#292D32"
     id="path18"
     style="fill:#ed5959;fill-opacity:1" />
  <path
     d="M9.06055 20V21.25C9.06055 21.66 8.72055 22 8.31055 22C7.89055 22 7.56055 21.66 7.56055 21.25V19.79C8.02055 19.93 8.50055 20 9.00055 20H9.06055Z"
     fill="#292D32"
     id="path20"
     style="fill:#ed5959;fill-opacity:1" />
  <path
     d="M4.21 7.55005C4.07 8.01005 4 8.50005 4 9.00005V9.05005H2.75C2.34 9.05005 2 8.72005 2 8.30005C2 7.89005 2.34 7.55005 2.75 7.55005H4.21Z"
     fill="#292D32"
     id="path22"
     style="fill:#ed5959;fill-opacity:1" />
  <path
     d="M4 11.25V12.75H2.75C2.34 12.75 2 12.41 2 12C2 11.58 2.34 11.25 2.75 11.25H4Z"
     fill="#292D32"
     id="path24"
     style="fill:#ed5959;fill-opacity:1" />
  <path
     d="M4.21 16.45H2.75C2.34 16.45 2 16.11 2 15.7C2 15.28 2.34 14.95 2.75 14.95H4V15C4 15.5 4.07 15.99 4.21 16.45Z"
     fill="#292D32"
     id="path26"
     style="fill:#ed5959;fill-opacity:1" />
  <path
     d="M17.2602 9.73999V14.25C17.2602 15.91 15.9202 17.25 14.2602 17.25H9.74023C8.08023 17.25 6.74023 15.91 6.74023 14.25V9.73999C6.74023 8.07999 8.08023 6.73999 9.74023 6.73999H14.2502C15.9102 6.73999 17.2602 8.08999 17.2602 9.73999Z"
     fill="#292D32"
     id="path28"
     style="fill:#ed5959;fill-opacity:1" />
</svg>
