<?xml version="1.0" encoding="UTF-8" standalone="no"?>
<!-- Uploaded to: SVG Repo, www.svgrepo.com, Generator: SVG Repo Mixer Tools -->

<svg
   width="800px"
   height="800px"
   viewBox="0 0 14 14"
   role="img"
   focusable="false"
   aria-hidden="true"
   version="1.1"
   id="svg540"
   sodipodi:docname="tech-ram-svgrepo-com (1).svg"
   inkscape:version="1.2.2 (732a01da63, 2022-12-09)"
   xmlns:inkscape="http://www.inkscape.org/namespaces/inkscape"
   xmlns:sodipodi="http://sodipodi.sourceforge.net/DTD/sodipodi-0.dtd"
   xmlns="http://www.w3.org/2000/svg"
   xmlns:svg="http://www.w3.org/2000/svg">
  <defs
     id="defs544" />
  <sodipodi:namedview
     id="namedview542"
     pagecolor="#ffffff"
     bordercolor="#000000"
     borderopacity="0.25"
     inkscape:showpageshadow="2"
     inkscape:pageopacity="0.0"
     inkscape:pagecheckerboard="0"
     inkscape:deskcolor="#d1d1d1"
     showgrid="false"
     inkscape:zoom="1.05875"
     inkscape:cx="400.47226"
     inkscape:cy="400.94451"
     inkscape:window-width="1920"
     inkscape:window-height="1028"
     inkscape:window-x="-8"
     inkscape:window-y="-8"
     inkscape:window-maximized="1"
     inkscape:current-layer="svg540" />
  <path
     fill="#4caf50"
     d="M11.90909086 3.18181822H2.09090914c-.6 0-1.09090908.49090909-1.09090908 1.09090908v4.36363632h11.99999988V4.2727273c0-.6-.49090909-1.09090908-1.09090908-1.09090908z"
     id="path532"
     style="fill:#ed5959;fill-opacity:1" />
  <path
     fill="#37474f"
     d="M1.00000006 8.63636362V9.7272727c0 .6.49090909 1.09090908 1.09090908 1.09090908h4.63636359V9.45454543c0-.16363636.1090909-.27272727.27272727-.27272727.16363636 0 .27272727.1090909.27272727.27272727v1.36363635h4.63636359c.6 0 1.09090908-.49090909 1.09090908-1.09090908V8.63636362H1.00000006z"
     id="path534" />
  <path
     fill="#ff9800"
     d="M2.36363641 9.18181816h.54545454v1.63636362h-.54545454zm1.09090908 0h.54545454v1.63636362h-.54545454zm1.09090908 0h.54545454v1.63636362h-.54545454zm1.09090908 0h.54545454v1.63636362h-.54545454zm2.18181816 0h.54545454v1.63636362h-.54545454zm1.09090908 0h.54545454v1.63636362h-.54545454zm1.09090908 0h.54545454v1.63636362h-.54545454zm1.09090908 0h.54545454v1.63636362h-.54545454z"
     id="path536" />
  <path
     fill="#37474f"
     d="M5.90909092 4.81818184h2.18181816v2.7272727H5.90909092zm3.27272724 0h2.18181816v2.7272727H9.18181816zm-6.54545448 0h2.18181816v2.7272727H2.63636368z"
     id="path538" />
</svg>
